<?xml version="1.0" standalone="no"?>
<!DOCTYPE svg PUBLIC "-//W3C//DTD SVG 20010904//EN"
 "http://www.w3.org/TR/2001/REC-SVG-20010904/DTD/svg10.dtd">
<svg version="1.0" xmlns="http://www.w3.org/2000/svg"
 width="197.000000pt" height="197.000000pt" viewBox="0 0 197.000000 197.000000"
 preserveAspectRatio="xMidYMid meet">
<metadata>
Created by potrace 1.14, written by Peter Selinger 2001-2017
</metadata>
<g transform="translate(0.000000,197.000000) scale(0.100000,-0.100000)"
fill="#000000" stroke="none">
<path d="M505 1943 c-20 -52 -115 -334 -115 -342 0 -4 33 -54 74 -110 l75
-102 -39 -72 c-21 -40 -79 -148 -130 -242 -50 -93 -115 -213 -143 -265 -27
-52 -86 -160 -130 -240 -43 -80 -80 -156 -80 -170 -1 -26 12 -168 18 -203 5
-22 15 -109 17 -150 2 -15 5 -27 8 -27 4 0 29 39 56 87 27 48 54 95 59 105 6
9 20 34 31 56 12 21 113 200 224 398 112 197 212 376 222 397 11 20 23 37 27
37 8 0 96 -245 140 -391 85 -281 142 -548 144 -676 0 -10 81 -13 372 -13 l371
0 30 33 c177 189 251 470 189 713 -20 76 -59 175 -88 222 -32 51 -79 175 -92
243 -46 233 -2 448 131 650 24 37 44 70 44 74 0 14 -56 -7 -108 -41 -68 -44
-209 -187 -257 -259 -77 -117 -107 -229 -108 -405 -1 -102 2 -152 19 -320 11
-108 10 -230 -2 -288 -24 -117 -128 -293 -216 -367 -42 -35 -147 -128 -207
-182 -25 -23 -47 -41 -47 -40 -1 1 -5 81 -8 177 -4 96 -9 193 -11 215 -2 22
-6 78 -10 125 -3 47 -8 94 -10 105 -2 11 -7 49 -10 84 -3 36 -8 81 -11 100
-13 100 -27 183 -39 251 -8 41 -16 86 -19 100 -23 139 -130 386 -261 600 -32
52 -65 107 -74 122 -19 32 -26 35 -36 11z"/>
</g>
</svg>
