<?xml version="1.0" standalone="no"?>
<!DOCTYPE svg PUBLIC "-//W3C//DTD SVG 20010904//EN"
 "http://www.w3.org/TR/2001/REC-SVG-20010904/DTD/svg10.dtd">
<svg version="1.0" xmlns="http://www.w3.org/2000/svg"
 width="848.000000pt" height="848.000000pt" viewBox="0 0 848.000000 848.000000"
 preserveAspectRatio="xMidYMid meet">
<metadata>
Created by potrace 1.14, written by Peter Selinger 2001-2017
</metadata>
<g transform="translate(0.000000,848.000000) scale(0.100000,-0.100000)"
fill="#000000" stroke="none">
<path d="M8428 7053 c-1 -5 -23 -24 -48 -44 -25 -20 -56 -47 -70 -59 -14 -12
-42 -36 -64 -53 -21 -18 -43 -37 -50 -42 -6 -6 -87 -75 -181 -154 -219 -184
-255 -215 -281 -238 -12 -10 -36 -29 -53 -42 -18 -14 -44 -36 -60 -50 -15 -14
-38 -35 -52 -46 -81 -66 -135 -112 -149 -125 -9 -8 -38 -34 -66 -56 -245 -206
-320 -269 -324 -274 -3 -3 -43 -37 -90 -75 -98 -81 -128 -106 -144 -120 -6 -5
-40 -35 -76 -65 -36 -30 -72 -61 -82 -70 -9 -8 -29 -25 -45 -37 -15 -12 -44
-36 -63 -53 -19 -17 -40 -35 -47 -40 -76 -62 -159 -134 -161 -141 -2 -5 -8 -9
-14 -9 -6 0 -18 -8 -27 -18 -9 -9 -41 -38 -71 -62 -30 -25 -66 -55 -80 -67
-14 -11 -77 -65 -140 -118 -199 -168 -212 -179 -290 -245 -42 -36 -96 -81
-121 -101 -24 -21 -60 -51 -79 -68 -19 -17 -38 -31 -41 -31 -10 0 -17 21 -69
210 -27 96 -53 190 -59 208 -5 17 -7 32 -4 32 3 0 1 6 -5 13 -6 6 -13 29 -17
50 -4 20 -11 39 -14 42 -4 2 -41 -23 -81 -56 -40 -33 -89 -72 -108 -87 -19
-15 -47 -37 -61 -49 -14 -13 -30 -26 -36 -31 -5 -4 -59 -47 -120 -96 -60 -48
-126 -101 -145 -117 -19 -15 -69 -56 -110 -89 -41 -33 -95 -77 -119 -98 -24
-20 -50 -41 -59 -46 -8 -5 -27 -19 -41 -32 -14 -12 -60 -50 -101 -83 -41 -34
-85 -70 -97 -80 -12 -10 -41 -33 -65 -52 -23 -18 -45 -36 -48 -39 -3 -3 -25
-21 -50 -40 -25 -19 -53 -42 -63 -52 -10 -10 -22 -18 -26 -18 -5 0 -30 48 -56
108 -27 59 -62 136 -78 172 -17 36 -55 122 -86 191 -31 69 -59 127 -62 130 -5
4 -84 -61 -148 -121 -14 -14 -62 -56 -106 -95 -44 -38 -87 -76 -96 -85 -9 -8
-31 -28 -50 -44 -42 -37 -180 -157 -195 -171 -6 -5 -41 -37 -79 -70 -109 -96
-168 -148 -193 -172 -12 -13 -27 -23 -32 -23 -4 0 -10 -4 -12 -9 -1 -5 -50
-50 -108 -101 -58 -51 -123 -108 -146 -129 -38 -34 -145 -129 -190 -168 -12
-10 -50 -44 -85 -75 -35 -31 -73 -65 -85 -75 -46 -39 -169 -149 -184 -163 -9
-8 -45 -40 -80 -70 -35 -30 -71 -62 -80 -70 -9 -8 -44 -40 -79 -70 -35 -30
-78 -68 -95 -85 -18 -16 -59 -52 -91 -80 -32 -27 -80 -70 -108 -95 -52 -47
-66 -60 -142 -125 -25 -22 -63 -56 -84 -75 -21 -19 -64 -57 -96 -85 -71 -62
-69 -60 -131 -115 -27 -25 -83 -74 -124 -110 -40 -36 -84 -74 -96 -85 -12 -11
-35 -31 -50 -44 -50 -42 -279 -244 -284 -250 -3 -3 -23 -22 -46 -41 -160 -138
-344 -312 -344 -325 0 -3 458 -5 1018 -5 l1018 0 111 108 c217 210 577 559
707 685 386 377 538 522 549 525 7 1 17 -8 23 -20 17 -37 121 -235 137 -260 8
-13 37 -66 64 -118 89 -168 108 -200 114 -198 4 2 33 27 65 57 33 29 97 88
142 130 46 42 99 90 117 106 18 17 74 68 125 115 52 47 105 96 120 110 15 14
64 59 109 100 46 41 97 88 114 104 17 15 72 65 121 110 49 44 101 92 116 106
92 86 121 112 124 109 4 -5 34 -85 91 -239 25 -69 49 -132 52 -140 3 -8 7 -21
9 -29 7 -33 26 -24 135 67 63 53 132 111 154 127 21 17 43 35 49 40 6 6 88 74
181 150 94 77 172 142 175 145 3 3 30 25 60 50 30 25 57 47 60 50 3 4 43 37
90 75 186 151 255 209 266 222 6 7 14 13 18 13 3 0 19 11 34 24 15 14 37 33
49 43 12 10 41 34 64 53 48 41 80 66 94 77 19 15 120 98 131 108 12 11 35 30
222 184 68 55 130 107 137 113 8 7 20 18 27 23 29 22 123 100 128 105 3 3 27
24 55 45 27 22 61 50 75 62 14 11 59 49 100 83 41 34 93 77 115 95 22 18 85
70 140 115 86 70 138 113 188 155 7 6 28 24 48 40 19 17 55 46 80 66 24 20
100 83 170 140 69 57 143 119 166 138 22 18 46 36 52 40 6 4 13 52 16 112 3
57 7 145 10 194 3 50 8 142 11 205 3 63 8 142 10 175 2 33 6 114 9 180 3 66 7
149 10 185 3 35 7 123 11 195 3 71 7 162 10 200 2 39 5 98 7 133 4 53 -4 79
-15 55z"/>
<path d="M5668 5442 c-1 -5 -76 -73 -166 -151 -146 -128 -162 -145 -158 -169
2 -15 5 -27 6 -27 1 0 3 -7 5 -15 3 -14 39 -159 50 -202 3 -10 7 -26 9 -35 2
-10 14 -56 26 -103 12 -47 22 -91 22 -97 2 -22 7 -19 89 49 24 20 95 78 157
128 120 98 117 93 98 165 -13 48 -28 112 -32 135 -3 14 -9 39 -14 55 -5 17
-12 41 -15 55 -2 14 -9 43 -14 65 -6 22 -15 62 -20 88 -6 27 -13 53 -16 58 -8
11 -22 12 -27 1z"/>
</g>
</svg>
